<?xml version="1.0" standalone="no"?>
<!DOCTYPE svg PUBLIC "-//W3C//DTD SVG 20010904//EN"
 "http://www.w3.org/TR/2001/REC-SVG-20010904/DTD/svg10.dtd">
<svg version="1.0" xmlns="http://www.w3.org/2000/svg"
 width="24.000000pt" height="24.000000pt" viewBox="0 0 24.000000 24.000000"
 preserveAspectRatio="xMidYMid meet">
<metadata>
Created by potrace 1.10, written by Peter Selinger 2001-2011
</metadata>
<g transform="translate(0.000000,24.000000) scale(0.050000,-0.050000)"
fill="#28b359" stroke="none">
<path d="M162 453 c-200 -68 -198 -359 3 -427 187 -62 352 102 289 289 -41
122 -167 181 -292 138z m98 -143 c0 -40 10 -50 50 -50 28 0 50 -9 50 -20 0
-11 -22 -20 -50 -20 -42 0 -50 -9 -50 -60 0 -33 -9 -60 -20 -60 -11 0 -20 27
-20 60 0 51 -8 60 -50 60 -27 0 -50 9 -50 20 0 11 23 20 50 20 40 0 50 10 50
50 0 28 9 50 20 50 11 0 20 -22 20 -50z"/>
</g>
</svg>
